<svg width="36" height="36" viewBox="0 0 36 36" fill="none" xmlns="http://www.w3.org/2000/svg">
<rect width="36" height="36" rx="5" fill="#1E1E1E"/>
<path d="M31.9508 27.9824L27.2834 5.79177C27.2231 5.50158 27.106 5.22618 26.9388 4.98138C26.7717 4.73658 26.5579 4.52722 26.3096 4.36532C26.0613 4.20341 25.7835 4.09216 25.4921 4.03795C25.2007 3.98374 24.9015 3.98764 24.6116 4.04943L18.0289 5.46412C17.4466 5.59161 16.9383 5.94384 16.6144 6.44419C16.2904 6.94455 16.1772 7.55256 16.2992 8.13599L20.9666 30.3266C21.0706 30.8329 21.3457 31.2879 21.7457 31.6152C22.1458 31.9425 22.6463 32.1221 23.1631 32.1238C23.3229 32.1236 23.4822 32.1066 23.6384 32.0732L30.2211 30.6585C30.8041 30.5307 31.3129 30.1778 31.6369 29.6766C31.9609 29.1753 32.0737 28.5664 31.9508 27.9824ZM18.5 7.67615C18.5 7.66771 18.5 7.66349 18.5 7.66349L25.0813 6.25724L25.5495 8.48896L18.9683 9.90505L18.5 7.67615ZM19.4309 12.1016L26.015 10.6883L26.4847 12.9243L19.9062 14.339L19.4309 12.1016ZM20.3647 16.5411L26.9488 15.1265L28.8191 24.0196L22.235 25.4343L20.3647 16.5411ZM29.75 28.4591L23.1687 29.8654L22.7005 27.6336L29.2817 26.2176L29.75 28.4465C29.75 28.4549 29.75 28.4591 29.75 28.4591ZM14 5.1238H7.25C6.65326 5.1238 6.08097 5.36086 5.65901 5.78281C5.23705 6.20477 5 6.77707 5 7.3738V29.8738C5 30.4705 5.23705 31.0428 5.65901 31.4648C6.08097 31.8868 6.65326 32.1238 7.25 32.1238H14C14.5967 32.1238 15.169 31.8868 15.591 31.4648C16.0129 31.0428 16.25 30.4705 16.25 29.8738V7.3738C16.25 6.77707 16.0129 6.20477 15.591 5.78281C15.169 5.36086 14.5967 5.1238 14 5.1238ZM7.25 7.3738H14V9.6238H7.25V7.3738ZM7.25 11.8738H14V25.3738H7.25V11.8738ZM14 29.8738H7.25V27.6238H14V29.8738Z" fill="white"/>
</svg>
